# xmcd
#
# Track frame offsets: 
#        150
#        10891
#        20864
#        33726
#        45828
#
# Disc length: 784 seconds
#
# Revision: 0
# Processed by: cddbd v1.5.2PL0 Copyright (c) Steve Scherf et al.
# Submitted via: ExactAudioCopy v0.99pb4
#
DISCID=36030e05
DTITLE=ToneJets - pure as it is
DYEAR=2008
DGENRE=country
TTITLE0=One Hand Loose
TTITLE1=Midnight Train
TTITLE2=Folsom Prison Blues
TTITLE3=Play The Music Louder
TTITLE4=Just Because
EXTD=
EXTT0=
EXTT1=
EXTT2=
EXTT3=
EXTT4=
PLAYORDER=
